<svg xmlns="http://www.w3.org/2000/svg" viewBox="0 0 64 64" role="img" aria-label="World Cup trophy favicon">
  <defs>
    <linearGradient id="cupGold" x1="0" y1="0" x2="1" y2="1">
      <stop offset="0%" stop-color="#f8e08a" />
      <stop offset="50%" stop-color="#d8b547" />
      <stop offset="100%" stop-color="#a87d1e" />
    </linearGradient>
  </defs>

  <g fill="url(#cupGold)" stroke="#7c5a16" stroke-width="1.5" stroke-linejoin="round" stroke-linecap="round">
    <path d="M32 6c-6 0-10 4-10 10 0 6 4 9 8 12l-2 8h8l-2-8c4-3 8-6 8-12 0-6-4-10-10-10z" />
    <path d="M24 36h16c0 7-4 12-8 12s-8-5-8-12z" />
    <rect x="25" y="48" width="14" height="5" rx="1.5" />
    <rect x="22" y="53" width="20" height="5" rx="2" />
    <path d="M20 17h-5c0 7 3 11 9 12" fill="none" />
    <path d="M44 17h5c0 7-3 11-9 12" fill="none" />
    <circle cx="32" cy="16" r="3" fill="#ffe9aa" stroke="none" />
  </g>
</svg>
